HIERARCHY
ROOT Hips
{
	OFFSET 0.00000 0.00000 0.00000
	CHANNELS 6 Xposition Yposition Zposition Yrotation Zrotation Xrotation 
	JOINT Lumbar
	{
		OFFSET 0 0 0
		CHANNELS 3 Zrotation Xrotation Yrotation
		JOINT Neck
		{
			OFFSET 0.00 0.2701 0.00
			CHANNELS 3 Zrotation Xrotation Yrotation
			End Site
			{
				OFFSET 0.00 0.1379 0.00
			}
		}
		JOINT RightShoulder
		{
			OFFSET 0.0119 0.2289 0.1181
			CHANNELS 3 Zrotation Xrotation Yrotation
			JOINT RightElbow
			{
				OFFSET 0.00 -0.1475 0.00
				CHANNELS 2 Zrotation Yrotation
				JOINT RightWrist
				{
					OFFSET 0.00 -0.1605 0.00
					CHANNELS 2 Zrotation Xrotation
					End Site
					{
						OFFSET 0.0040 -0.1068 0.0006
					}
				}
			}
		}
		JOINT LeftShoulder
		{
			OFFSET 0.0119 0.2289 -0.1181
			CHANNELS 3 Zrotation Xrotation Yrotation
			JOINT LeftElbow
			{
				OFFSET 0.00 -0.1475 0.00
				CHANNELS 2 Zrotation Yrotation
				JOINT LeftWrist
				{
					OFFSET 0.00 -0.1605 0.00
					CHANNELS 2 Zrotation Xrotation
					End Site
					{
						OFFSET 0.0040 -0.1068 -0.0006
					}
				}
			}
		}
	}
	JOINT RightHip
	{
		OFFSET 0.0316 -0.0424 0.0458
		CHANNELS 3 Zrotation Xrotation Yrotation
		JOINT RightKnee
		{
			OFFSET 0.00 -0.2438 0.00
			CHANNELS 1 Zrotation
			JOINT RightAnkle
			{
				OFFSET 0.00 -0.2449 0.00
				CHANNELS 3 Zrotation Xrotation Yrotation
				End Site
				{
					OFFSET 0.1237 -0.0542 0.0051
				}
			}
		}
	}
	JOINT LeftHip
	{
		OFFSET 0.0316 -0.0424 -0.0458
		CHANNELS 3 Zrotation Xrotation Yrotation
		JOINT LeftKnee
		{
			OFFSET 0.00 -0.2438 0.00
			CHANNELS 1 Zrotation
			JOINT LeftAnkle
			{
				OFFSET 0.00 -0.2449 0.00
				CHANNELS 3 Zrotation Xrotation Yrotation
				End Site
				{
					OFFSET 0.1237 -0.0542 -0.0051
				}
			}
		}
	}
}
MOTION
Frames: 26
Frame Time: 0.02
-0.08553 0.57852 0.10396 166.65785 0 -4.38105 4.3421 4.79379 -6.79355 -57.23977 6.5461 3.60715 61.77005 -51.65413 1.12733 84.06968 65.5233 22.47008 -6.17463 59.30874 34.59907 -1.91097 88.10031 -62.31927 23.19228 6.62218 10.74105 1.36587 -0.48411 -14.6109 -18.37326 -1.1117 -13.96734 -3.48261 -0.41627 17.01164 -6.73104 -2.47023 4.21885 11.52268
-0.08552 0.57855 0.10401 166.71641 0 -4.37631 4.36637 4.80229 -6.80637 -57.25994 6.57259 3.63797 61.90813 -51.67756 1.26896 84.12718 65.60321 22.39667 -6.16854 59.34213 34.58477 -1.95392 88.06992 -62.3684 23.15721 6.6046 10.7391 1.34752 -0.53395 -14.62459 -18.37196 -1.09852 -13.97252 -3.47732 -0.42043 16.99053 -6.72608 -2.49749 4.21279 11.49411
-0.08554 0.57859 0.10405 166.747 0 -4.37602 4.38154 4.81828 -6.80913 -57.23431 6.59306 3.67943 62.08824 -51.724 1.44244 84.18109 65.72859 22.28922 -6.16035 59.3814 34.56477 -2.02246 88.06126 -62.4337 23.10302 6.58725 10.73918 1.33755 -0.56501 -14.63593 -18.37853 -1.08035 -13.97762 -3.48085 -0.422 16.99569 -6.71349 -2.52654 4.20708 11.46385
-0.08555 0.57862 0.10409 166.78829 0 -4.37317 4.40011 4.83023 -6.81531 -57.23137 6.61512 3.71509 62.25018 -51.75552 1.60081 84.23736 65.8301 22.19609 -6.15353 59.4186 34.54965 -2.07841 88.04537 -62.49406 23.05774 6.56964 10.73811 1.32396 -0.60222 -14.64825 -18.38018 -1.0654 -13.98289 -3.48022 -0.42499 16.98781 -6.70583 -2.55408 4.20134 11.43699
-0.08555 0.57865 0.10415 166.83816 0 -4.37234 4.4218 4.84463 -6.82662 -57.22092 6.6424 3.7548 62.41325 -51.80722 1.7623 84.29826 65.94236 22.10955 -6.14519 59.45681 34.52723 -2.14059 88.0231 -62.54792 23.01015 6.55217 10.73763 1.30943 -0.64929 -14.66075 -18.38649 -1.04659 -13.98761 -3.48086 -0.4273 16.98418 -6.69096 -2.5847 4.19503 11.39896
-0.08558 0.57868 0.10417 166.86375 0 -4.36853 4.43474 4.85587 -6.82493 -57.2153 6.65729 3.78866 62.58177 -51.82194 1.92396 84.34609 66.0438 22.00121 -6.13946 59.49323 34.51771 -2.19488 88.01764 -62.61765 22.96321 6.53469 10.73659 1.29897 -0.6717 -14.67258 -18.38538 -1.03453 -13.99348 -3.4805 -0.4301 16.97822 -6.69014 -2.60917 4.19 11.38357
-0.08571 0.57867 0.10406 166.82588 0 -4.3545 4.42692 4.85554 -6.78764 -57.23153 6.63858 3.80333 62.75797 -51.72755 2.08736 84.35388 66.10817 21.83257 -6.14095 59.51984 34.54569 -2.22314 88.051 -62.72844 22.9246 6.51656 10.73305 1.29699 -0.62743 -14.68073 -18.36129 -1.04286 -14.00222 -3.47789 -0.43721 16.95754 -6.72438 -2.61773 4.18846 11.43435
-0.08589 0.57865 0.10391 166.76508 0 -4.3375 4.41043 4.85196 -6.73793 -57.25461 6.6077 3.8118 62.93702 -51.59524 2.24826 84.34834 66.15986 21.6443 -6.14519 59.54461 34.58649 -2.242 88.10025 -62.85395 22.88721 6.49857 10.72902 1.29898 -0.55952 -14.68877 -18.32966 -1.05805 -14.01218 -3.47349 -0.44446 16.9339 -6.77403 -2.61978 4.1882 11.50749
-0.08604 0.57863 0.10378 166.71687 0 -4.3225 4.39711 4.85057 -6.69532 -57.27621 6.58288 3.82343 63.11211 -51.48091 2.40428 84.35096 66.21513 21.47026 -6.14847 59.57184 34.62071 -2.26347 88.14304 -62.97141 22.84821 6.48095 10.72557 1.29964 -0.50454 -14.69839 -18.30204 -1.06974 -14.02176 -3.46803 -0.45007 16.91293 -6.82051 -2.62384 4.18732 11.56824
-0.08619 0.57861 0.10365 166.6586 0 -4.30496 4.38661 4.84649 -6.64637 -57.28928 6.5556 3.83412 63.29983 -51.36404 2.58647 84.34493 66.28084 21.27295 -6.15048 59.59221 34.65771 -2.2926 88.18351 -63.09512 22.81283 6.46151 10.72067 1.29859 -0.43985 -14.70133 -18.27236 -1.08288 -14.03052 -3.47056 -0.46218 16.88759 -6.85098 -2.63195 4.18655 11.63801
-0.08636 0.5786 0.1035 166.61611 0 -4.29189 4.36841 4.84708 -6.60762 -57.32237 6.53067 3.84498 63.4616 -51.24341 2.71357 84.35353 66.32163 21.11952 -6.15577 59.62667 34.69232 -2.30357 88.23222 -63.20924 22.77065 6.44585 10.71866 1.30194 -0.38978 -14.71834 -18.24488 -1.0947 -14.04136 -3.45622 -0.46093 16.86994 -6.91802 -2.63007 4.18594 11.6947
-0.08658 0.57863 0.10327 166.62347 0 -4.29221 4.33028 4.86172 -6.60163 -57.40908 6.51493 3.85927 63.54836 -51.1193 2.68525 84.40746 66.293 21.09526 -6.16987 59.69737 34.71451 -2.26314 88.29997 -63.29161 22.70772 6.44098 10.72458 1.31645 -0.38803 -14.77288 -18.22706 -1.10115 -14.05716 -3.39276 -0.42175 16.87735 -7.08703 -2.60195 4.18458 11.70669
-0.08681 0.57867 0.10302 166.64747 0 -4.29703 4.2849 4.88107 -6.6061 -57.51587 6.50203 3.87362 63.60911 -50.99301 2.60208 84.47625 66.24015 21.11547 -6.18709 59.78275 34.73434 -2.20526 88.37527 -63.36402 22.63834 6.43981 10.73347 1.33522 -0.40148 -14.84187 -18.21135 -1.10608 -14.07511 -3.31291 -0.36933 16.89196 -7.29144 -2.56403 4.18347 11.70527
-0.08703 0.5787 0.10277 166.66358 0 -4.29955 4.24341 4.89798 -6.6048 -57.61379 6.48806 3.88698 63.68343 -50.86923 2.54651 84.53716 66.2007 21.11331 -6.2026 59.86353 34.75709 -2.15759 88.44692 -63.442 22.57307 6.43669 10.74106 1.352 -0.40667 -14.90511 -18.19349 -1.11177 -14.09239 -3.24242 -0.32366 16.90101 -7.4766 -2.53075 4.18282 11.7121
-0.08724 0.57874 0.10254 166.68039 0 -4.30306 4.19909 4.91604 -6.60733 -57.71109 6.47283 3.90422 63.75086 -50.73789 2.47985 84.60239 66.15101 21.11932 -6.21946 59.93592 34.77265 -2.10009 88.5202 -63.51616 22.50275 6.43474 10.74831 1.36915 -0.41684 -14.9648 -18.18041 -1.11739 -14.10842 -3.16369 -0.27487 16.91934 -7.67578 -2.49644 4.17985 11.71087
-0.08748 0.57877 0.10227 166.69981 0 -4.3056 4.15908 4.93288 -6.60457 -57.81406 6.46093 3.91343 63.82597 -50.62207 2.42295 84.6623 66.11672 21.11945 -6.23419 60.02878 34.80222 -2.0589 88.59148 -63.59564 22.44154 6.43118 10.7571 1.38652 -0.4204 -15.03546 -18.15795 -1.12271 -14.12757 -3.09837 -0.22947 16.92049 -7.85379 -2.46205 4.1817 11.72262
-0.08778 0.57877 0.10194 166.72418 0 -4.30448 4.13242 4.94508 -6.58447 -57.93044 6.45891 3.90086 63.93231 -50.55162 2.40932 84.7042 66.13387 21.08988 -6.24252 60.17887 34.87292 -2.06845 88.6568 -63.69266 22.40587 6.4227 10.76845 1.40314 -0.4036 -15.13145 -18.10927 -1.12744 -14.15467 -3.07306 -0.19651 16.86899 -7.96601 -2.42983 4.19728 11.77623
-0.08811 0.57875 0.10158 166.75041 0 -4.30221 4.11045 4.95593 -6.55881 -58.05129 6.45999 3.88018 64.0466 -50.49681 2.40691 84.74025 66.16689 21.05343 -6.24854 60.34818 34.95731 -2.09482 88.71942 -63.79515 22.37983 6.41242 10.78141 1.41987 -0.37949 -15.23819 -18.05111 -1.13191 -14.18486 -3.06205 -0.16748 16.80061 -8.05526 -2.39795 4.21758 11.84273
-0.08843 0.57875 0.10124 166.77468 0 -4.30038 4.08656 4.96749 -6.53582 -58.16832 6.45872 3.8629 64.15481 -50.43358 2.39739 84.77886 66.19075 21.02198 -6.25547 60.50593 35.03425 -2.1126 88.78239 -63.89488 22.35014 6.40265 10.79432 1.43676 -0.35776 -15.34105 -17.99721 -1.13656 -14.2137 -3.04509 -0.13676 16.74226 -8.15419 -2.36591 4.23539 11.90144
-0.08874 0.57874 0.10089 166.80412 0 -4.29906 4.06147 4.97878 -6.51244 -58.29362 6.46129 3.84668 64.27245 -50.37527 2.39421 84.81842 66.22191 20.98426 -6.26312 60.67637 35.11663 -2.1337 88.84971 -63.99569 22.31708 6.39423 10.8046 1.45297 -0.34036 -15.44047 -17.94353 -1.14089 -14.24238 -3.02501 -0.10509 16.67429 -8.258 -2.3334 4.25472 11.96793
-0.08907 0.57873 0.10054 166.82316 0 -4.29636 4.04012 4.99026 -6.48861 -58.40248 6.45685 3.82652 64.37277 -50.31112 2.38149 84.85439 66.24201 20.95729 -6.26865 60.82445 35.19057 -2.15216 88.90679 -64.09533 22.29352 6.38265 10.82051 1.47052 -0.31222 -15.54905 -17.88715 -1.14583 -14.27209 -3.01529 -0.07658 16.62217 -8.3452 -2.30224 4.27194 12.02135
-0.08942 0.57871 0.10018 166.81171 0 -4.28993 4.0277 5.00244 -6.46323 -58.46463 6.42981 3.79573 64.42257 -50.22131 2.33732 84.88228 66.2274 20.96251 -6.26919 60.90854 35.24121 -2.15883 88.93989 -64.19345 22.29288 6.36151 10.85341 1.49209 -0.25443 -15.6832 -17.82531 -1.15266 -14.30404 -3.02861 -0.05542 16.61875 -8.39638 -2.27357 4.28277 12.03647
-0.08978 0.57868 0.09982 166.78993 0 -4.28217 4.01894 5.01485 -6.43783 -58.50998 6.39609 3.76155 64.45485 -50.12615 2.28375 84.90665 66.20133 20.97845 -6.26762 60.96892 35.28229 -2.16239 88.96215 -64.28967 22.3017 6.33747 10.8916 1.51491 -0.18634 -15.8256 -17.76111 -1.16008 -14.33688 -3.0523 -0.03746 16.63168 -8.4307 -2.24652 4.2912 12.03789
-0.09014 0.57866 0.09945 166.77364 0 -4.27513 4.00873 5.02723 -6.4135 -58.56308 6.36701 3.7301 64.49589 -50.0372 2.23645 84.93225 66.18078 20.98868 -6.26681 61.0385 35.32557 -2.16773 88.98681 -64.38484 22.30683 6.3156 10.92614 1.53693 -0.12404 -15.96219 -17.69819 -1.16711 -14.36923 -3.0727 -0.01838 16.6366 -8.46971 -2.21958 4.30032 12.04505
-0.0905 0.57863 0.09908 166.75394 0 -4.26755 3.99786 5.03926 -6.38456 -58.61598 6.33115 3.69347 64.5342 -49.93291 2.18156 84.95909 66.15932 21.0021 -6.26675 61.11546 35.37834 -2.17222 89.02167 -64.48833 22.30965 6.29012 10.96595 1.55998 -0.05677 -16.10773 -17.63407 -1.17462 -14.4021 -3.08768 0.00199 16.64345 -8.52032 -2.18911 4.31126 12.05471
-0.09086 0.57861 0.09873 166.73899 0 -4.2608 3.98905 5.05209 -6.36523 -58.6651 6.30792 3.66677 64.57348 -49.85903 2.13948 84.98277 66.137 21.01169 -6.26467 61.17109 35.40897 -2.17735 89.03324 -64.57392 22.31947 6.27142 10.99609 1.58114 0.00242 -16.2366 -17.57198 -1.18131 -14.434 -3.1161 0.01896 16.65032 -8.54325 -2.16631 4.31782 12.05572
